{
    "asset" : {
        "generator" : "Khronos glTF Blender I/O v1.8.19",
        "version" : "2.0"
    },
    "scene" : 0,
    "scenes" : [
        {
            "name" : "Scene",
            "nodes" : [
                0
            ]
        }
    ],
    "nodes" : [
        {
            "mesh" : 0,
            "name" : "ornament_green"
        }
    ],
    "materials" : [
        {
            "doubleSided" : true,
            "name" : "gold",
            "pbrMetallicRoughness" : {
                "baseColorFactor" : [
                    0.6239604353904724,
                    0.3613065481185913,
                    0.054480381309986115,
                    1
                ],
                "metallicFactor" : 0.75,
                "roughnessFactor" : 0.2952961325645447
            }
        },
        {
            "doubleSided" : true,
            "name" : "Material.004",
            "pbrMetallicRoughness" : {
                "baseColorFactor" : [
                    0,
                    0.31854677200317383,
                    0.0006071403622627258,
                    1
                ],
                "metallicFactor" : 0.75,
                "roughnessFactor" : 0.35104531049728394
            }
        }
    ],
    "meshes" : [
        {
            "name" : "Cylinder.003",
            "primitives" : [
                {
                    "attributes" : {
                        "POSITION" : 0,
                        "NORMAL" : 1,
                        "TEXCOORD_0" : 2
                    },
                    "indices" : 3,
                    "material" : 0
                },
                {
                    "attributes" : {
                        "POSITION" : 4,
                        "NORMAL" : 5,
                        "TEXCOORD_0" : 6
                    },
                    "indices" : 7,
                    "material" : 1
                }
            ]
        }
    ],
    "accessors" : [
        {
            "bufferView" : 0,
            "componentType" : 5126,
            "count" : 499,
            "max" : [
                0.21412315964698792,
                1.1758147478103638,
                0.20849578082561493
            ],
            "min" : [
                -0.21052882075309753,
                0.9209762811660767,
                -0.21615615487098694
            ],
            "type" : "VEC3"
        },
        {
            "bufferView" : 1,
            "componentType" : 5126,
            "count" : 499,
            "type" : "VEC3"
        },
        {
            "bufferView" : 2,
            "componentType" : 5126,
            "count" : 499,
            "type" : "VEC2"
        },
        {
            "bufferView" : 3,
            "componentType" : 5123,
            "count" : 1716,
            "type" : "SCALAR"
        },
        {
            "bufferView" : 4,
            "componentType" : 5126,
            "count" : 559,
            "max" : [
                1.0009026527404785,
                0.9584298729896545,
                0.99527508020401
            ],
            "min" : [
                -0.9973076581954956,
                -1.039781928062439,
                -1.0029348134994507
            ],
            "type" : "VEC3"
        },
        {
            "bufferView" : 5,
            "componentType" : 5126,
            "count" : 559,
            "type" : "VEC3"
        },
        {
            "bufferView" : 6,
            "componentType" : 5126,
            "count" : 559,
            "type" : "VEC2"
        },
        {
            "bufferView" : 7,
            "componentType" : 5123,
            "count" : 2880,
            "type" : "SCALAR"
        }
    ],
    "bufferViews" : [
        {
            "buffer" : 0,
            "byteLength" : 5988,
            "byteOffset" : 0
        },
        {
            "buffer" : 0,
            "byteLength" : 5988,
            "byteOffset" : 5988
        },
        {
            "buffer" : 0,
            "byteLength" : 3992,
            "byteOffset" : 11976
        },
        {
            "buffer" : 0,
            "byteLength" : 3432,
            "byteOffset" : 15968
        },
        {
            "buffer" : 0,
            "byteLength" : 6708,
            "byteOffset" : 19400
        },
        {
            "buffer" : 0,
            "byteLength" : 6708,
            "byteOffset" : 26108
        },
        {
            "buffer" : 0,
            "byteLength" : 4472,
            "byteOffset" : 32816
        },
        {
            "buffer" : 0,
            "byteLength" : 5760,
            "byteOffset" : 37288
        }
    ],
    "buffers" : [
        {
            "byteLength" : 43048,
            "uri" : "data:application/octet-stream;base64,"
        }
    ]
}
