{
    "asset" : {
        "generator" : "Khronos glTF Blender I/O v1.8.19",
        "version" : "2.0"
    },
    "scene" : 0,
    "scenes" : [
        {
            "name" : "Scene",
            "nodes" : [
                0,
                1,
                2
            ]
        }
    ],
    "nodes" : [
        {
            "mesh" : 0,
            "name" : "Sphere"
        },
        {
            "mesh" : 1,
            "name" : "BezierCurve",
            "rotation" : [
                0.5040653944015503,
                -0.4930964708328247,
                -0.5068696141242981,
                0.49583980441093445
            ],
            "scale" : [
                0.22701996564865112,
                0.2566126883029938,
                0.2566261291503906
            ],
            "translation" : [
                0,
                0.8522659540176392,
                0
            ]
        },
        {
            "mesh" : 2,
            "name" : "Sphere.001",
            "rotation" : [
                -0.43492940068244934,
                -0.2789090871810913,
                -0.4621790051460266,
                0.720719575881958
            ],
            "scale" : [
                0.4531534016132355,
                0.45315343141555786,
                0.45315343141555786
            ],
            "translation" : [
                -0.1584724336862564,
                0.8855010271072388,
                0.08785251528024673
            ]
        }
    ],
    "materials" : [
        {
            "doubleSided" : true,
            "name" : "Material",
            "pbrMetallicRoughness" : {
                "baseColorFactor" : [
                    1,
                    0.11104739457368851,
                    0.07496833056211472,
                    1
                ],
                "metallicFactor" : 0,
                "roughnessFactor" : 0.36818182468414307
            }
        },
        {
            "doubleSided" : true,
            "name" : "Material.001",
            "pbrMetallicRoughness" : {
                "baseColorFactor" : [
                    0.25294312834739685,
                    0.03274112194776535,
                    0.009168547578155994,
                    1
                ],
                "metallicFactor" : 0,
                "roughnessFactor" : 0.6590908765792847
            }
        },
        {
            "doubleSided" : true,
            "name" : "Material.002",
            "pbrMetallicRoughness" : {
                "baseColorFactor" : [
                    0.22661693394184113,
                    1,
                    0.05368780344724655,
                    1
                ],
                "metallicFactor" : 0,
                "roughnessFactor" : 0.22727300226688385
            }
        }
    ],
    "meshes" : [
        {
            "name" : "Sphere",
            "primitives" : [
                {
                    "attributes" : {
                        "POSITION" : 0,
                        "NORMAL" : 1,
                        "TEXCOORD_0" : 2
                    },
                    "indices" : 3,
                    "material" : 0
                }
            ]
        },
        {
            "name" : "BezierCurve",
            "primitives" : [
                {
                    "attributes" : {
                        "POSITION" : 4,
                        "NORMAL" : 5,
                        "TEXCOORD_0" : 6
                    },
                    "indices" : 7,
                    "material" : 1
                }
            ]
        },
        {
            "name" : "Sphere.001",
            "primitives" : [
                {
                    "attributes" : {
                        "POSITION" : 8,
                        "NORMAL" : 9,
                        "TEXCOORD_0" : 10
                    },
                    "indices" : 3,
                    "material" : 2
                }
            ]
        }
    ],
    "accessors" : [
        {
            "bufferView" : 0,
            "componentType" : 5126,
            "count" : 559,
            "max" : [
                0.9750733375549316,
                0.8408143520355225,
                0.9750730991363525
            ],
            "min" : [
                -0.9750727415084839,
                -0.8302710056304932,
                -0.97507244348526
            ],
            "type" : "VEC3"
        },
        {
            "bufferView" : 1,
            "componentType" : 5126,
            "count" : 559,
            "type" : "VEC3"
        },
        {
            "bufferView" : 2,
            "componentType" : 5126,
            "count" : 559,
            "type" : "VEC2"
        },
        {
            "bufferView" : 3,
            "componentType" : 5123,
            "count" : 2880,
            "type" : "SCALAR"
        },
        {
            "bufferView" : 4,
            "componentType" : 5126,
            "count" : 193,
            "max" : [
                1,
                0.10000000894069672,
                0.10000000149011612
            ],
            "min" : [
                -1.0707106590270996,
                -0.10000000894069672,
                -0.3222189247608185
            ],
            "type" : "VEC3"
        },
        {
            "bufferView" : 5,
            "componentType" : 5126,
            "count" : 193,
            "type" : "VEC3"
        },
        {
            "bufferView" : 6,
            "componentType" : 5126,
            "count" : 193,
            "type" : "VEC2"
        },
        {
            "bufferView" : 7,
            "componentType" : 5123,
            "count" : 924,
            "type" : "SCALAR"
        },
        {
            "bufferView" : 8,
            "componentType" : 5126,
            "count" : 559,
            "max" : [
                0.38629183173179626,
                1.5640745162963867,
                0.08279824256896973
            ],
            "min" : [
                -0.3862914741039276,
                0.5151345133781433,
                -0.08442023396492004
            ],
            "type" : "VEC3"
        },
        {
            "bufferView" : 9,
            "componentType" : 5126,
            "count" : 559,
            "type" : "VEC3"
        },
        {
            "bufferView" : 10,
            "componentType" : 5126,
            "count" : 559,
            "type" : "VEC2"
        }
    ],
    "bufferViews" : [
        {
            "buffer" : 0,
            "byteLength" : 6708,
            "byteOffset" : 0
        },
        {
            "buffer" : 0,
            "byteLength" : 6708,
            "byteOffset" : 6708
        },
        {
            "buffer" : 0,
            "byteLength" : 4472,
            "byteOffset" : 13416
        },
        {
            "buffer" : 0,
            "byteLength" : 5760,
            "byteOffset" : 17888
        },
        {
            "buffer" : 0,
            "byteLength" : 2316,
            "byteOffset" : 23648
        },
        {
            "buffer" : 0,
            "byteLength" : 2316,
            "byteOffset" : 25964
        },
        {
            "buffer" : 0,
            "byteLength" : 1544,
            "byteOffset" : 28280
        },
        {
            "buffer" : 0,
            "byteLength" : 1848,
            "byteOffset" : 29824
        },
        {
            "buffer" : 0,
            "byteLength" : 6708,
            "byteOffset" : 31672
        },
        {
            "buffer" : 0,
            "byteLength" : 6708,
            "byteOffset" : 38380
        },
        {
            "buffer" : 0,
            "byteLength" : 4472,
            "byteOffset" : 45088
        }
    ],
    "buffers" : [
        {
            "byteLength" : 49560,
            "uri" : "data:application/octet-stream;base64,"
        }
    ]
}
