{
  "asset": {
    "generator": "Khronos glTF Blender I/O v1.8.19",
    "version": "2.0"
  },
  "scene": 0,
  "scenes": [
    {
      "name": "Scene",
      "nodes": [0]
    }
  ],
  "nodes": [
    {
      "mesh": 0,
      "name": "ornament_origin"
    }
  ],
  "meshes": [
    {
      "name": "Cylinder.005",
      "primitives": [
        {
          "attributes": {
            "POSITION": 0,
            "NORMAL": 1,
            "TEXCOORD_0": 2
          },
          "indices": 3
        }
      ]
    }
  ],
  "accessors": [
    {
      "bufferView": 0,
      "componentType": 5126,
      "count": 1058,
      "max": [0.9732460379600525, 1.1527719497680664, 0.9735932350158691],
      "min": [-0.9858089089393616, -1.0194092988967896, -0.9854611754417419],
      "type": "VEC3"
    },
    {
      "bufferView": 1,
      "componentType": 5126,
      "count": 1058,
      "type": "VEC3"
    },
    {
      "bufferView": 2,
      "componentType": 5126,
      "count": 1058,
      "type": "VEC2"
    },
    {
      "bufferView": 3,
      "componentType": 5123,
      "count": 4596,
      "type": "SCALAR"
    }
  ],
  "bufferViews": [
    {
      "buffer": 0,
      "byteLength": 12696,
      "byteOffset": 0
    },
    {
      "buffer": 0,
      "byteLength": 12696,
      "byteOffset": 12696
    },
    {
      "buffer": 0,
      "byteLength": 8464,
      "byteOffset": 25392
    },
    {
      "buffer": 0,
      "byteLength": 9192,
      "byteOffset": 33856
    }
  ],
  "buffers": [
    {
      "byteLength": 43048,
      "uri": "data:application/octet-stream;base64,"
    }
  ]
}
