<?xml version="1.0" encoding="UTF-8"?>
<svg id="_レイヤー_1" xmlns="http://www.w3.org/2000/svg" width="98.8mm" height="81.1mm" version="1.1" viewBox="0 0 280 230">
  <!-- Generator: Adobe Illustrator 29.1.0, SVG Export Plug-In . SVG Version: 2.1.0 Build 142)  -->
  <defs>
    <style>
      .st0 {
        fill: #bc884a;
      }

      .st0, .st1, .st2, .st3 {
        fill-rule: evenodd;
      }

      .st1 {
        fill: #fff;
      }

      .st4 {
        fill: #606060;
      }

      .st2 {
        fill: #ebb66f;
      }

      .st3 {
        fill: #c75a5a;
      }
    </style>
  </defs>
  <g>
    <path class="st2" d="M618.6-183.5c3,4.7,7.8,7.7,12.9,8.2,6.3.5,10.9,2.6,13,6.4,7.3,12.6-15.4,39.4-50.7,59.7-35.3,20.4-69.8,26.6-77.1,14-2.2-3.8-1.7-8.8,1-14.5,2.1-4.7,1.9-10.4-.6-15.3-1.1-2.2-2.2-4.4-3.3-6.6-25.6-53.7-18.5-95.8,4.2-108.9,22.7-13.1,62.7,1.8,96.4,50.8,1.4,2,2.7,4.1,4.1,6.1h0Z"/>
    <path class="st2" d="M567.5-155c35.3-20.4,69.8-26.6,77.1-14,7.3,12.6-15.4,39.4-50.7,59.7-35.3,20.4-69.8,26.6-77.1,14-7.3-12.6,15.4-39.4,50.7-59.7h0Z"/>
    <path class="st0" d="M573.1-145.3c16.9-9.8,33.7-15.5,45.8-16,3.4-.2,6.5,0,8.8.9,1.5.5,2.8,1.2,3.5,2.4.7,1.2.7,2.6.4,4.2-.5,2.5-1.8,5.2-3.6,8.1-6.5,10.2-19.9,21.9-36.8,31.6-16.9,9.8-33.7,15.5-45.8,16-3.4.2-6.4,0-8.8-.9-1.6-.5-2.8-1.2-3.5-2.4-.7-1.2-.7-2.6-.4-4.2.5-2.5,1.8-5.2,3.6-8.1,6.5-10.2,19.9-21.9,36.8-31.6h0Z"/>
    <path class="st2" d="M589.2-152.1c-.2-.3-.4-.6-.6-1-5,2.2-10.2,4.8-15.4,7.8-4.9,2.9-9.6,5.9-13.8,8.9.2.4.4.7.6,1.1,4.7,8.1,15,10.9,23.1,6.2s10.9-15,6.2-23.1Z"/>
    <path class="st2" d="M513.7-248.2c5.6-3.2,13.1-.8,16.7,5.5s2,14-3.6,17.2c-5.6,3.2-13.1.8-16.7-5.5-3.6-6.3-2-14,3.6-17.2h0Z"/>
    <path class="st2" d="M491-124.5c-3.3,4.4-4.6,10-3.3,14.9,1.7,6.1,1.3,11.1-1.5,14.4-9.4,11.2-42.3-1-73.5-27.2-31.2-26.2-48.9-56.5-39.5-67.6,2.8-3.3,7.7-4.6,13.9-4,5.1.4,10.4-1.8,14.1-5.8,1.7-1.8,3.4-3.6,5.1-5.3,41.7-42.4,83.7-50.1,103.8-33.3,20.1,16.9,19.8,59.6-14.7,108-1.4,2-2.9,4-4.4,5.9h0Z"/>
    <path class="st2" d="M446.6-162.8c31.2,26.2,48.9,56.5,39.6,67.6s-42.3-1-73.5-27.2c-31.2-26.2-48.9-56.5-39.6-67.6,9.4-11.2,42.3,1,73.5,27.2h0Z"/>
    <path class="st2" d="M515.8-245.3c5,4.2,5.2,12.1.6,17.6-4.6,5.5-12.5,6.6-17.4,2.5s-5.2-12.1-.6-17.6c4.6-5.5,12.4-6.6,17.4-2.5h0Z"/>
    <path class="st3" d="M523.2-246.7c.3-.4.6-.7.9-1.1,1.4-2.2,2.1-4.8,2.5-7.3,1.4-7.9-3.9-15.7-12.5-16.2,0,0-.1,0-.2,0-.5-.4-1.2-.5-1.8-.3,0,0-.2,0-.3,0-1.2,0-2.5,0-3.8.1-1.3,0-2.6-.2-3.8-.1-.1,0-.2,0-.3,0-.6-.2-1.3,0-1.8.3,0,0-.1,0-.2,0-8.6.5-13.9,8.2-12.5,16.2.5,2.5,1.1,5.1,2.5,7.3.2.4.5.7.9,1.1.4.6.9,1.2,1.4,1.7.2.4.6.7.9.8,2,1.6,4.6,2.6,7.4,2.8.7.1,1.4.2,2,.2.8,0,1.6.2,2.4.2,1.5,0,3-.1,4.4-.3h0c3.6.1,6.8-.9,9.3-2.9.4-.2.7-.4.9-.8.5-.5,1-1.1,1.4-1.7h0Z"/>
    <path class="st3" d="M569.8-199.4c6.3.7,12.9-.4,18.2-4.2,1.5-1.1,3.1-2.2,4.3-3.6.8-.9,1.4-2.3.8-3.5-.4-.8-1.3-1.1-2.2-1.1-.1,0-.2,0-.4,0-.4,0-.8-.2-1.2-.3-1.2-.2-2.3-.6-3.4-1-5-2.1-10-4.2-14.7-7-9.1-5.4-18.4-10.8-26.1-18.2-7-6.7-12.6-14.7-16.8-23.4-.5-1-1.7-1.5-2.8-1.1-1-.6-2.2-.8-3.4-.6-2.3.5-3.4,2.8-3.5,4.9,0,0,0,.2,0,.2,0,.1-.2.2-.2.3-.2.4-.3.8-.3,1.2,0,.6.1,1.3.2,1.9.2,2.4.4,4.8.6,7.1.5,6.2,1.7,12.3,3.1,18.3,4.6,18.9,16.1,36.6,32.2,47.7,0,0,0,0,0,0,1.6,1.3,3.1,2.4,5.3,2.1.3,0,.7,0,1,0,1.3-.2,2.5-.9,3.5-1.8,1.3-1.2,2.2-2.7,3.2-4.2,2.6-4.2,3.5-9.1,2.5-13.9h0Z"/>
    <path class="st3" d="M461.8-181.7c16.1-11.1,27.6-28.8,32.2-47.7,1.5-6,2.7-12.1,3.1-18.3.2-2.4.5-4.8.6-7.1,0-.6.2-1.3.2-1.9,0-.4-.1-.8-.3-1.2,0-.1-.1-.2-.2-.3,0,0,0-.2,0-.2-.1-2.2-1.2-4.4-3.5-4.9-1.1-.3-2.3,0-3.3.6-1.1-.4-2.3.1-2.8,1.1-4.2,8.7-9.8,16.7-16.8,23.4-7.7,7.3-17,12.8-26.1,18.2-4.7,2.8-9.7,4.9-14.7,7-1.1.5-2.3.8-3.5,1-.4,0-.8.2-1.2.3-.1,0-.2,0-.3,0-.8,0-1.7.4-2.2,1.1-.7,1.2,0,2.6.8,3.5,1.2,1.4,2.8,2.5,4.3,3.6,5.3,3.7,11.9,4.9,18.2,4.2-1,4.8,0,9.7,2.5,13.9.9,1.5,1.9,3,3.2,4.2,1,.9,2.2,1.6,3.5,1.8.3,0,.7,0,1,0,2.1.2,3.7-.8,5.3-2.1,0,0,0,0,0,0h0Z"/>
    <path class="st3" d="M576.7-229.4c.2-.2.5-.4.5-.6.8-1.2,1.3-2.7,1.8-4.1,2.1-5.4,4-10.8,5-16.6,2.1-12.4.5-26.1-4.6-37.9,0-.7-.3-1.5-.6-2.3-.6-1.4-1.6-2.7-2.1-3.6-3.2-5.4-8.2-11.1-15.4-9.8-2.2.4-4.5,1.9-6.4,3.4,0,0-.1,0-.2,0-.2,0-1.2.8-1.2.8,0,0,0,0,0,0-.6.5-1.2,1.1-1.8,1.6-.7.6-1.3,1.1-2,1.7-1.7,1.4-3.4,2.8-5.1,4.3-7.2,6.1-14.4,12-22,17.5-.1,0-.2,0-.4.2-.2,0-.4.1-.5.2-.2.2-.4.3-.6.5-.3.3-.7.6-1,.9,0,0-.1,0-.2.1-1.5,1.1-2.9,2.4-4.5,3.5-.9.6-1.1,1.8-.6,2.7.4.5.9.8,1.5.9-.7,5.5,2.5,10.9,6.5,14.5,3.2,3.3,7.4,5.9,11.2,8.4,8.2,5.2,17.1,9,26.4,12,3.6,1.2,7,2,10.8,2.5.5,0,1.5.3,2.4.4.6.3,1.3.3,1.9,0,.4-.2.6-.5.8-.8,0,0,0,0,0,0,.1-.1.2-.2.3-.3h0Z"/>
    <path class="st3" d="M499.6-265.9c.6,0,1.1-.3,1.5-.9.6-.9.4-2.1-.5-2.7-1.6-1.1-3-2.4-4.5-3.5,0,0-.1,0-.2-.1-.3-.3-.7-.6-1-.9-.2-.2-.4-.4-.6-.5,0,0-.3-.1-.5-.2-.1,0-.2-.1-.4-.2-7.6-5.6-14.8-11.5-22-17.5-1.7-1.5-3.4-2.9-5.1-4.3-.7-.6-1.3-1.1-2-1.7-.6-.5-1.2-1.1-1.8-1.6h0c0,0-.9-.7-1.2-.8,0,0-.1,0-.2,0-2-1.5-4.2-3-6.4-3.4-7.2-1.3-12.2,4.5-15.4,9.8-.5.9-1.5,2.2-2.1,3.6-.3.8-.5,1.5-.6,2.3-5,11.8-6.6,25.5-4.6,37.9,1,5.8,2.8,11.1,5,16.6.5,1.4,1,2.8,1.8,4.1,0,.1.3.3.5.6,0,.1.2.2.3.3,0,0,0,0,0,0,.2.3.4.6.8.8.6.3,1.3.3,1.9,0,.9,0,1.8-.3,2.3-.4,3.7-.5,7.2-1.3,10.8-2.5,9.2-3,18.1-6.8,26.3-12,3.9-2.4,8-5,11.2-8.4,3.9-3.6,7.2-9,6.5-14.5h0Z"/>
  </g>
  <g>
    <g>
      <path class="st1" d="M936.7,313.3c-6.7,0-11.3-1.6-13-4.5-1.8-3.1-.3-7.6,1.2-10.8,2.7-5.8,2.4-12.8-.7-18.8-1.3-2.5-2.3-4.5-3.2-6.5-23.1-48.5-17.3-82.5-5.3-96.9.9-1.1,1.2-2.7.6-4.1-1.7-4.1-.5-8.6,2.8-10.5,1-.6,2.2-.9,3.4-.9,2.6,0,5.3,1.4,7.1,3.7.8,1,1.9,1.6,3.2,1.6s.5,0,.7,0c2-.3,4.1-.5,6.2-.5,24,0,52,20,75.1,53.6,1.3,1.9,2.6,3.9,4,6,0,0,0,.1.1.2,3.6,5.6,9.5,9.2,15.8,9.8,3.6.3,8.2,1.3,9.9,4.4,5.3,9.2-14.7,34.3-49.2,54.3-21.4,12.3-43.8,20-58.6,20s0,0,0,0Z"/>
      <path class="st4" d="M922.5,164.3c1.4,0,2.9.8,3.9,2.2,1.5,2,3.9,3.1,6.3,3.1s.9,0,1.4-.1c1.8-.3,3.6-.5,5.5-.5,10.1,0,21.7,4.2,33.5,12.1,13.4,9,26.7,22.8,38.3,39.7,1.3,1.9,2.6,3.8,3.9,5.9,0,.1.1.2.2.3,4.3,6.5,11.3,10.8,18.7,11.5,0,0,0,0,0,0,4.2.4,6.3,1.5,6.8,2.4,1,1.8-.4,8.2-8.6,17.8-9,10.6-22.9,21.6-39.2,31-20.8,12-42.5,19.5-56.6,19.5s-9-1.6-9.5-2.5c-.5-.9-.5-3.3,1.3-7.1,0,0,0,0,0,0,3.1-6.9,2.8-15.2-.8-22.2-1.3-2.5-2.3-4.5-3.2-6.4-9.7-20.5-15.1-40.4-15.4-57.7-.3-14.7,3.1-27.2,9.6-35,1.9-2.3,2.4-5.4,1.3-8.2-.9-2.2-.4-4.6,1.1-5.5.4-.2.9-.4,1.4-.4M1030.1,222.4h0,0M922.5,156.3c-1.9,0-3.7.5-5.4,1.4-5.1,2.9-6.9,9.6-4.5,15.4-15.1,18.2-17,55.5,4.7,101.2,1,2.2,2.1,4.4,3.3,6.6,2.5,4.9,2.8,10.6.6,15.3-2.7,5.7-3.2,10.7-1,14.5,2.5,4.4,8.4,6.5,16.5,6.5,15,0,37.7-7.3,60.6-20.5,35.3-20.4,58-47.1,50.7-59.7-2.2-3.7-6.7-5.8-13-6.3-5.1-.5-9.9-3.5-12.9-8.2h0c-1.3-2.1-2.7-4.1-4.1-6.1-26-37.8-55.7-55.3-78.4-55.3-2.4,0-4.7.2-6.9.6-2.6-3.4-6.4-5.3-10.2-5.3h0Z"/>
    </g>
    <g>
      <path class="st1" d="M878.4,311c-14.1,0-38.1-12.2-59.8-30.4-30.6-25.7-45.8-53.9-39-62,1.5-1.8,4.2-2.7,8.1-2.7s1.6,0,2.4.1c.6,0,1.1,0,1.6,0,5.9,0,11.6-2.6,15.8-7.2,1.8-2,3.5-3.7,5-5.2,25.2-25.6,52.7-40.4,75.5-40.4s9.7.8,13.8,2.2c.4.2.9.2,1.4.2,1,0,1.9-.4,2.7-1,1.8-1.6,4.1-2.5,6.3-2.5s3.2.5,4.4,1.5c0,0,0,0,.1.1,2.9,2.4,3.3,7.1.9,10.8-.8,1.3-.8,2.8,0,4.1,9.3,16.3,9.1,50.8-22,94.5-1.4,1.9-2.8,3.8-4.2,5.7,0,0,0,0,0,.1-4.1,5.4-5.6,12.2-4,18.4.9,3.5,1.6,8.1-.7,10.8-1.5,1.8-4.2,2.7-8.1,2.7h0Z"/>
      <path class="st4" d="M912.2,166.2c.7,0,1.3.2,1.8.6,0,0,0,0,.1.1,1.3,1.1,1.4,3.6.1,5.6-1.6,2.5-1.6,5.7-.2,8.2,5,8.8,6.2,21.6,3.4,36.1-3.3,16.9-12.1,35.7-25.2,54.1-1.3,1.9-2.7,3.7-4.1,5.6,0,0,0,0-.1.1-4.8,6.3-6.6,14.5-4.7,21.8,0,0,0,0,0,0,1.1,4,.7,6.4,0,7.2-.7.8-2.5,1.3-5,1.3-11,0-32.9-9.1-57.2-29.5-14.4-12.1-26.2-25.4-33.2-37.4-6.4-10.9-6.7-17.4-5.3-19,.7-.8,2.6-1.3,5-1.3.6,0,1.3,0,2.1,0,0,0,0,0,0,0,.6,0,1.2,0,1.9,0,7,0,13.8-3.1,18.8-8.4,1.9-2,3.4-3.6,4.9-5.2,24.5-24.9,50.9-39.2,72.6-39.2,4.6,0,8.8.7,12.5,2,.9.3,1.8.5,2.7.5,2,0,3.9-.7,5.4-2.1,1-1,2.3-1.5,3.6-1.5M912.2,158.2c-3.1,0-6.4,1.2-9,3.6-4.5-1.6-9.6-2.5-15.2-2.5-21.6,0-50,12.8-78.3,41.6-1.7,1.8-3.4,3.5-5.1,5.3-3.4,3.7-8.2,5.9-12.9,5.9s-.8,0-1.2,0c-1,0-1.9-.1-2.8-.1-4.9,0-8.8,1.3-11.1,4.1-9.4,11.2,8.4,41.5,39.5,67.6,23.3,19.6,47.6,31.3,62.3,31.3s8.8-1.3,11.1-4.1c2.8-3.3,3.2-8.3,1.5-14.4-1.3-5,0-10.5,3.3-14.9h0c1.5-2,3-4,4.4-5.9,29.4-41.3,34-78.3,22.2-98.8,3.4-5.4,2.8-12.2-1.7-16h0c-2-1.7-4.5-2.5-7.1-2.5h0Z"/>
    </g>
    <g>
      <path class="st1" d="M943.3,322.8c-6.7,0-11.3-1.6-13-4.5-5.3-9.2,14.7-34.3,49.2-54.3,21.4-12.3,43.8-20,58.6-20s11.3,1.6,13,4.5c5.3,9.2-14.7,34.3-49.2,54.3-21.4,12.3-43.8,20-58.6,20Z"/>
      <path class="st4" d="M1038.1,240v8c5.6,0,8.8,1.3,9.5,2.5,1,1.8-.4,8.2-8.6,17.8-9,10.6-22.9,21.6-39.2,31-20.8,12-42.5,19.5-56.6,19.5s-8.8-1.3-9.5-2.5c-1-1.8.4-8.2,8.6-17.8,9-10.6,22.9-21.6,39.2-31,20.8-12,42.5-19.5,56.6-19.5v-8M1038.1,240c-15,0-37.7,7.3-60.6,20.5-35.3,20.4-58,47.1-50.7,59.7,2.5,4.4,8.4,6.5,16.5,6.5,15,0,37.7-7.3,60.6-20.5,35.3-20.4,58-47.1,50.7-59.7-2.5-4.4-8.4-6.5-16.5-6.5h0Z"/>
    </g>
    <g>
      <path class="st1" d="M953.4,313.6c-2.3,0-4.2-.2-5.6-.7-1-.3-1.3-.6-1.3-.6h0s-.1-.4.1-1.4c.4-1.8,1.4-4.1,3.1-6.8,6.3-9.8,19.6-21.2,35.4-30.3,0,0,.1,0,.2-.1,15.8-9.1,32.1-14.8,43.8-15.4.6,0,1.2,0,1.7,0,2.3,0,4.2.2,5.6.7,1,.3,1.3.6,1.3.7,0,0,0,.4-.1,1.4-.4,1.8-1.4,4.1-3.1,6.7-6.3,9.8-19.6,21.2-35.4,30.3-15.8,9.2-32.3,14.9-44,15.5-.6,0-1.2,0-1.8,0Z"/>
      <path class="st4" d="M1030.8,262.2c.9,0,1.6,0,2.2,0-.4.9-1,1.9-1.8,3.3-6,9.3-18.7,20.2-34.1,29-15.3,8.8-31.1,14.4-42.2,15-.5,0-1.1,0-1.6,0-.8,0-1.5,0-2.1,0,.4-.9,1-1.9,1.8-3.3,6-9.3,18.7-20.2,34-29,0,0,.2,0,.2-.1,15.2-8.8,30.9-14.3,41.9-14.8.5,0,1.1,0,1.6,0M1030.8,254.2c-.6,0-1.3,0-1.9,0-12.1.6-28.9,6.3-45.8,16h0c-16.9,9.8-30.2,21.5-36.8,31.6-1.9,2.9-3.1,5.6-3.6,8.1-.3,1.6-.3,3.1.3,4.2.7,1.2,1.9,1.9,3.5,2.4,1.9.6,4.2.9,6.9.9s1.3,0,2,0c12.1-.6,28.8-6.3,45.8-16,16.9-9.8,30.2-21.5,36.8-31.6,1.9-2.9,3.2-5.6,3.7-8.1.3-1.6.3-3.1-.3-4.2-.7-1.2-2-1.9-3.5-2.4-1.9-.7-4.3-.9-6.9-.9h0Z"/>
    </g>
    <g>
      <path class="st1" d="M984.5,284.8c-3.8,0-7.4-1.7-9.8-4.5,3.3-2.3,6.8-4.5,10.4-6.5,3.8-2.2,7.7-4.2,11.6-6.1.8,2.4.9,5,.3,7.5-.9,3.3-3,6.1-6,7.8-2,1.1-4.2,1.7-6.4,1.7h0Z"/>
      <path class="st4" d="M993.2,273.9c0,.1,0,.2,0,.3-.6,2.3-2.1,4.2-4.1,5.4-1.4.8-2.9,1.2-4.4,1.2s-1.8-.1-2.7-.4c1.7-1.1,3.5-2.1,5.2-3.2,2-1.2,4-2.3,6.1-3.3M998.5,262.5c-5,2.2-10.2,4.8-15.4,7.8-4.9,2.8-9.5,5.9-13.8,9,.2.4.3.7.6,1.1,3.1,5.4,8.8,8.5,14.7,8.5s5.8-.7,8.4-2.3c8.1-4.7,10.9-15,6.2-23.1-.2-.3-.4-.6-.6-1h0Z"/>
    </g>
    <g>
      <path class="st1" d="M910.4,161c-.2,0-.4,0-.6,0-.4,0-1-.1-1.6-.1s-.3,0-.4,0h0c-.4,0-.8,0-1.1-.1-.1,0-.2,0-.4,0-2-.2-3.8-.9-5.3-2-.1,0-.2-.2-.3-.2,0-.1-.2-.2-.3-.3-.4-.4-.7-.8-1-1.1-.1-.1-.2-.3-.3-.4-.3-.3-.4-.4-.4-.5-1.1-1.8-1.6-4.1-2-6-.5-2.9.2-5.8,1.9-7.9,1.6-2.1,4.1-3.3,6.9-3.5,0,0,.2,0,.2,0,.4,0,.8-.1,1.2-.2.2,0,.5,0,.7,0s.1,0,.2,0c.2,0,.3,0,.5,0,.8,0,1.6,0,2.6.1h.3c0,0,.2,0,.3,0s.2,0,.3,0h.4c.8,0,1.6-.1,2.3-.1s.3,0,.5,0c0,0,.1,0,.2,0,.2,0,.5,0,.7,0,0,0,.2,0,.3,0,.5.1.9.2,1.2.2,2.8.2,5.2,1.4,6.8,3.5,1.7,2.2,2.4,5.1,1.9,7.9-.3,1.8-.9,4.2-2,6,0,0,0,0-.2.3-.2.2-.4.4-.5.6-.3.4-.6.7-.9,1.1-.1.1-.2.2-.3.3-.1,0-.2.2-.4.2-1.7,1.3-3.9,2-6.3,2s-.5,0-.5,0c-.2,0-.4,0-.5,0-1.4.2-2.7.3-4,.3Z"/>
      <path class="st4" d="M914.5,142.5c.1,0,.2,0,.3,0,.1,0,.3,0,.4,0s.2,0,.3,0c.7.2,1.2.2,1.7.2,2,.2,3.2,1.2,3.9,2,1,1.3,1.4,3,1.1,4.8-.3,1.4-.6,3.1-1.3,4.3-.3.3-.5.6-.8.9-.1.2-.3.3-.4.5,0,0-.1.1-.2.2,0,0-.1,0-.2.1-1,.8-2.3,1.2-3.8,1.2s-.2,0-.3,0c0,0-.2,0-.2,0h0c-.3,0-.6,0-1,0-1.2.1-2.3.2-3.4.2,0,0-.2,0-.2,0-.5,0-1.2-.1-2-.1s-.3,0-.4,0c0,0-.2,0-.4,0-.2,0-.5,0-.7,0-1.2-.1-2.3-.5-3.1-1.1,0,0-.1,0-.2-.1,0,0,0,0-.1-.1-.2-.2-.4-.4-.5-.6-.2-.3-.4-.6-.7-.8,0,0,0,0,0,0-.7-1.2-1.1-3-1.3-4.4-.3-1.7,0-3.5,1.1-4.8.7-.8,1.9-1.9,4-2,.1,0,.2,0,.4,0,.4,0,.8,0,1.2-.2,0,0,.2,0,.3,0s.2,0,.3,0c.1,0,.2,0,.3,0,.6,0,1.4,0,2.3.1h.3c.2,0,.4,0,.6,0s.4,0,.6,0h.4c.8,0,1.5-.1,2.1-.1M916.1,134.3c-.2,0-.4,0-.6.1,0,0-.2,0-.3,0-.2,0-.5,0-.7,0-1,0-2,0-3.1.2-1.1,0-2.1-.2-3.1-.2-.2,0-.4,0-.7,0,0,0-.2,0-.3,0-.2,0-.4-.1-.6-.1-.4,0-.8.1-1.2.4,0,0-.2,0-.2,0-8.6.5-13.9,8.2-12.5,16.2.5,2.5,1.1,5.1,2.5,7.3.2.4.5.7.9,1.1.4.6.9,1.2,1.4,1.7.2.4.6.7,1,.8,2,1.6,4.6,2.6,7.4,2.8.6.1,1.2.2,1.7.2s.2,0,.3,0c0,0,.1,0,.2,0,.7,0,1.4.2,2.2.2,1.5,0,3-.1,4.4-.3h0c.2,0,.3,0,.5,0,3.4,0,6.4-1,8.8-2.9.4-.2.7-.4.9-.8.5-.5,1-1.1,1.4-1.7h0c.3-.4.7-.7.9-1.1,1.4-2.2,2.1-4.8,2.5-7.3,1.4-7.9-3.9-15.7-12.5-16.2,0,0-.2,0-.2,0-.3-.3-.7-.4-1.2-.4h0Z"/>
    </g>
    <g>
      <path class="st1" d="M962.4,222.5c-.5,0-1.2-.5-2.2-1.3h0c-.1,0-.2-.2-.3-.2-14.9-10.3-26-26.8-30.5-45.3-1.7-7-2.6-12.5-3-17.7,0-1.1-.2-2.2-.3-3.4-.1-1.2-.2-2.5-.3-3.7,0-.3,0-.6-.1-1,0,0,0-.1,0-.2.3-.5.4-1,.5-1.5,0-.2,0-.4,0-.6,0-.7.3-1.1.4-1.2,0,0,.2,0,.5.2.5.3,1.1.5,1.7.5,4.5,9,10.2,16.9,17.1,23.4,7.8,7.4,17.1,12.9,26,18.3l.8.4c4.5,2.7,9.3,4.7,14,6.7l1.2.5c1.1.5,2.3.8,3.5,1.1-.6.5-1.3.9-1.9,1.4l-.2.2c-3.4,2.4-7.6,3.6-12.3,3.6s0,0,0,0c-1,0-1.9,0-2.9-.2-.2,0-.4,0-.7,0-1,0-2.1.4-2.8,1.2-1,1-1.4,2.5-1,3.9.7,3.6,0,7.4-2,10.7-.8,1.2-1.6,2.5-2.5,3.3-.5.4-1,.7-1.4.8-.1,0-.3,0-.4,0s-.3,0-.5,0c0,0,0,0-.1,0Z"/>
      <path class="st4" d="M930.2,147.5h0,0M931.6,150.7h0,0M930.4,158.1c3.7,5.7,7.9,10.8,12.7,15.3,8.1,7.8,17.6,13.4,26.7,18.8l.7.4c3.7,2.2,7.4,3.9,11.1,5.5-1.8.5-3.5.6-4.9.6s-1.6,0-2.4-.1c-.4,0-.8,0-1.2,0-2.1,0-4.2.8-5.7,2.4-2,2-2.8,4.9-2.1,7.6.5,2.6,0,5.4-1.5,7.8-.4.6-.8,1.3-1.2,1.8-.2-.1-.3-.3-.5-.4-14.1-9.8-24.6-25.4-28.9-43-1.6-6.6-2.5-11.8-2.9-16.6M926.6,142.4c-.3,0-.6,0-.9.1-2.3.5-3.4,2.8-3.5,4.9,0,0,0,.2,0,.2,0,.1-.2.2-.2.3-.2.4-.3.8-.3,1.2,0,.6.1,1.3.2,1.9.2,2.4.4,4.8.6,7.1.5,6.2,1.7,12.3,3.1,18.3,4.6,18.9,16.1,36.6,32.2,47.7,0,0,0,0,0,0,1.4,1.2,2.9,2.2,4.7,2.2s.4,0,.6,0c.1,0,.3,0,.4,0,.2,0,.4,0,.6,0,1.3-.2,2.5-.9,3.5-1.8,1.3-1.2,2.2-2.7,3.2-4.2,2.6-4.2,3.5-9.1,2.5-13.9,0,0,0,0,0,0h0s0,0,0,0c1.2.1,2.4.2,3.6.2,5.2,0,10.3-1.3,14.6-4.4,1.5-1.1,3.1-2.1,4.3-3.6.8-.9,1.5-2.4.8-3.5-.4-.8-1.3-1.1-2.2-1.1-.1,0-.2,0-.4,0-.4-.1-.8-.2-1.2-.3-1.2-.2-2.3-.5-3.4-1-5-2.1-10-4.2-14.7-7-9.1-5.4-18.4-10.8-26-18.2-7-6.6-12.6-14.7-16.8-23.4-.4-.8-1.2-1.3-2-1.3-.2,0-.5,0-.7.1-.7-.4-1.6-.7-2.4-.7h0Z"/>
    </g>
    <g>
      <path class="st1" d="M860.3,222.5c-.1,0-.3,0-.4,0s-.2,0-.3,0c-.5,0-1-.4-1.5-.8-.9-.8-1.6-2-2.4-3.3-2.1-3.4-2.8-7.3-2-11,.3-1.3,0-2.6-.9-3.5-.8-.8-1.8-1.3-3-1.3s-.3,0-.5,0c-1,.1-2.1.2-3.1.2-4.7,0-9-1.3-12.3-3.6h-.1c-.7-.6-1.4-1.1-2.1-1.6,1.2-.3,2.4-.6,3.5-1.1l1.2-.5c4.7-2,9.5-4,14-6.7l.8-.4c8.9-5.3,18.2-10.8,26-18.3,6.8-6.5,12.6-14.4,17.1-23.4.6,0,1.2-.2,1.7-.5.2-.1.4-.1.4-.1,0,0,.4.5.4,1.2,0,0,0,.2,0,.3,0,.6.2,1.2.5,1.8,0,0,0,.1,0,.2,0,.3,0,.6-.1,1,0,1.2-.2,2.5-.3,3.7-.1,1.1-.2,2.2-.3,3.4-.4,5.2-1.3,10.6-3,17.6-4.5,18.5-15.6,35.1-30.5,45.4-.1,0-.3.2-.4.3-1.1.9-1.6,1.2-2.1,1.2s0,0-.1,0Z"/>
      <path class="st4" d="M897.9,150.1h0,0M892.5,158.1c-.4,4.8-1.3,10-2.9,16.6-4.3,17.6-14.8,33.3-28.9,43-.2.1-.3.2-.5.4-.4-.6-.9-1.3-1.2-1.8-1.5-2.5-2.1-5.3-1.5-8,.5-2.5-.2-5.1-1.9-7.1-1.5-1.7-3.7-2.6-5.9-2.6s-.6,0-.9,0c-.9.1-1.8.2-2.7.2-1.4,0-3.1-.1-4.9-.6,3.7-1.6,7.5-3.4,11.1-5.5l.8-.4c9.1-5.4,18.6-11,26.7-18.8,4.7-4.5,9-9.6,12.7-15.3M896.3,142.5c-.9,0-1.7.3-2.4.7-.2,0-.5-.1-.7-.1-.8,0-1.7.5-2,1.3-4.2,8.7-9.8,16.7-16.8,23.4-7.7,7.3-17,12.8-26.1,18.2-4.7,2.8-9.7,4.9-14.7,7-1.1.5-2.3.8-3.5,1-.4,0-.8.2-1.2.3-.1,0-.2,0-.4,0-.8,0-1.7.4-2.2,1.1-.7,1.2,0,2.6.8,3.5,1.2,1.4,2.8,2.5,4.3,3.6,4.3,3,9.4,4.4,14.6,4.4s2.4,0,3.6-.2c-1,4.8,0,9.7,2.5,13.9.9,1.5,1.9,3,3.2,4.2,1,.9,2.2,1.6,3.5,1.8.2,0,.4,0,.6,0s.3,0,.4,0c.2,0,.4,0,.6,0,1.8,0,3.2-1,4.7-2.2,0,0,0,0,0,0h0c16.1-11.1,27.6-28.8,32.2-47.7,1.5-6,2.7-12.1,3.1-18.3.2-2.4.5-4.8.6-7.1,0-.6.2-1.3.2-1.9,0-.4-.1-.8-.3-1.2,0-.1-.2-.2-.2-.3,0,0,0-.2,0-.2-.1-2.2-1.2-4.4-3.5-4.9-.3,0-.6-.1-.9-.1h0Z"/>
    </g>
    <g>
      <path class="st1" d="M977.3,173.8c-.3,0-.8-.1-1.1-.2-.3,0-.6-.1-.8-.1-3.5-.5-6.7-1.2-10.1-2.3-10.1-3.3-18.2-7-25.5-11.6-3.7-2.3-7.6-4.8-10.5-7.8,0,0-.1-.1-.2-.2-2.9-2.6-5.7-6.9-5.2-11,.1-.8,0-1.7-.5-2.4.2-.2.4-.3.6-.5.6-.5,1.2-1,1.8-1.4,0,0,0,0,0,0,.2-.1.4-.3.5-.4.2-.2.4-.4.6-.5l.4-.4s0,0,.1,0c.3-.1.6-.3.9-.5,6.7-5,13.6-10.4,22.2-17.7,0,0,0,0,0,0,1.6-1.5,3.3-2.8,4.9-4.1.8-.6,1.4-1.2,2.1-1.8.3-.2.6-.5.9-.8.2-.2.4-.4.6-.6,0,0,0,0,0,0,0,0,.3-.2.5-.4.3-.1.6-.3.8-.5,2-1.6,3.6-2.4,4.7-2.7.4,0,.9-.1,1.3-.1,3.4,0,6.7,2.7,9.9,8.1.2.3.4.6.6.9.4.7,1,1.5,1.3,2.2.2.5.3.8.3,1,0,.4.1.9.3,1.3,4.7,11,6.3,24,4.3,35.7-1,5.8-3,11.2-4.8,15.8-.1.3-.2.6-.3.9-.3.8-.6,1.6-1,2.2,0,0-.1.1-.2.2Z"/>
      <path class="st4" d="M966.9,109.6c1.8,0,4.2,2.3,6.4,6.1.2.3.4.7.6,1,.3.5.8,1.2.9,1.6,0,.8.3,1.6.6,2.3,4.4,10.3,5.9,22.5,4,33.5-.9,5.4-2.7,10.4-4.5,15,0,.1,0,.2-.1.3-2.9-.5-5.6-1.1-8.4-2-9.8-3.2-17.6-6.8-24.6-11.2-3.5-2.2-7.2-4.5-9.8-7.2-.1-.1-.2-.2-.3-.3-2.6-2.4-4.2-5.4-3.9-7.5,0-.5,0-.9,0-1.4,0,0,.2-.1.3-.2,0,0,0,0,0,0,.3-.2.6-.5.9-.8.2-.1.3-.3.5-.4.4-.2.8-.5,1.2-.7,6.8-5,13.7-10.5,22.4-17.9,0,0,.1,0,.2-.1,1.6-1.4,3.2-2.7,4.8-4,0,0,.1,0,.2-.1.7-.6,1.4-1.2,2-1.7.3-.3.6-.6,1-.8.2-.2.4-.3.5-.5,0,0,0,0,0,0,.4-.2.8-.5,1.2-.7,2.1-1.6,3-1.9,3-1.9.2,0,.4,0,.6,0M962.4,112h0,0M930.4,137.7h0,0M966.9,101.6c-.7,0-1.3,0-2.1.2-2.2.4-4.5,1.9-6.5,3.4,0,0-.1,0-.2,0-.2,0-1.2.8-1.2.8,0,0,0,0,0,0-.6.5-1.2,1.1-1.8,1.6-.7.6-1.3,1.2-2,1.7-1.7,1.4-3.4,2.8-5.1,4.3-7.2,6.1-14.4,12-22,17.5-.1,0-.2,0-.4.2-.2,0-.4.1-.5.2-.2.2-.4.3-.6.5-.3.3-.7.6-1,.9,0,0-.1,0-.2.1-1.5,1.1-2.9,2.4-4.5,3.5-.9.6-1.2,1.8-.6,2.7.4.5.9.8,1.5.9-.7,5.5,2.5,10.9,6.5,14.5,3.2,3.3,7.3,5.9,11.2,8.4,8.2,5.2,17.1,9,26.3,12,3.6,1.2,7,2,10.8,2.5.5,0,1.5.3,2.4.4.3.2.6.2.9.2s.6,0,.9-.2c.3-.2.6-.5.8-.8,0,0,0,0,0,0,.1-.1.2-.2.3-.3h0c.2-.2.5-.4.5-.6.8-1.2,1.3-2.7,1.8-4,2.2-5.4,4-10.8,5-16.6,2.1-12.4.5-26.1-4.6-37.9,0-.7-.3-1.5-.6-2.3-.6-1.4-1.6-2.7-2.1-3.6-2.9-4.8-7.3-10-13.3-10h0Z"/>
    </g>
    <g>
      <path class="st1" d="M845.6,173.6c-.3-.6-.6-1.4-.9-2.2-.1-.3-.2-.6-.3-.9-1.9-4.8-3.8-10-4.8-15.8-2-11.7-.4-24.7,4.3-35.7.2-.4.3-.8.3-1.2,0-.2,0-.6.3-1,.3-.7.8-1.6,1.3-2.2.2-.3.4-.7.6-.9,3.2-5.3,6.5-8,9.9-8s.9,0,1.3.1c1.7.3,4,2.1,4.8,2.7.3.2.5.4.8.5.2.2.5.4.5.4,0,0,0,0,0,0,.3.2.5.5.8.7l.7.6c.5.4.9.8,1.4,1.2l.6.5c1.7,1.4,3.4,2.8,5,4.2,8.8,7.4,15.6,12.9,22.3,17.8.3.2.6.4.9.5,0,0,.1,0,.2,0,0,0,.1.1.2.1.3.2.6.5.8.7,0,0,.2.1.2.2.1,0,.3.2.4.3.6.4,1.2.9,1.8,1.4.2.2.4.3.6.5-.4.8-.6,1.7-.4,2.6.4,4.1-2.4,8.2-5.2,10.8,0,0-.1.1-.2.2-3,3-6.8,5.4-10.5,7.8-7.2,4.5-15.5,8.3-25.5,11.6-3.3,1.1-6.5,1.8-10.1,2.3-.2,0-.5,0-.8.1-.4,0-.8.1-1.1.2,0,0-.2-.2-.2-.2Z"/>
      <path class="st4" d="M856.1,109.6h0c.2,0,.4,0,.6,0,.1,0,1,.3,3.1,1.9.4.3.7.5,1.1.7,0,0,.1,0,.1,0,0,0,0,0,0,0,.2.2.5.4.7.6.2.2.5.4.7.7.5.4,1,.8,1.5,1.2l.6.5s0,0,.1.1c1.6,1.3,3.3,2.7,4.8,4.1,0,0,0,0,.1.1,8.8,7.4,15.7,12.9,22.4,17.9.4.3.8.5,1.2.7.2.1.3.3.5.4.2.1.3.3.5.4.2.2.4.3.6.4,0,0,.1,0,.2.1,0,.6,0,1.1,0,1.7.1,2.1-1.4,5-3.9,7.3-.1.1-.2.2-.3.3-2.6,2.7-6.3,5-9.8,7.2-6.9,4.3-14.9,8-24.6,11.2-2.8.9-5.4,1.6-8.4,2,0-.1,0-.2-.1-.3-1.8-4.6-3.6-9.6-4.5-14.9-1.8-10.9-.4-23.1,4-33.5.3-.7.5-1.5.6-2.3.2-.4.6-1.1,1-1.6.2-.4.5-.7.6-1,2.3-3.8,4.7-6.1,6.5-6.1M856.1,101.6c-6.1,0-10.5,5.2-13.3,10-.5.9-1.5,2.2-2.1,3.6-.3.8-.5,1.5-.6,2.3-5,11.8-6.6,25.5-4.6,37.9,1,5.8,2.8,11.1,5,16.6.5,1.4,1,2.8,1.8,4,0,.1.3.3.5.5,0,.1.2.2.3.4,0,0,0,0,0,0,.2.3.4.6.8.8.3.2.6.2.9.2s.6,0,.9-.2c.9,0,1.8-.3,2.3-.4,3.7-.5,7.2-1.3,10.8-2.5,9.2-3,18.1-6.8,26.3-12,3.9-2.5,8-5.1,11.2-8.4,3.9-3.6,7.2-9,6.5-14.5,0,0,0,0,0,0h0s0,0,0,0c.6,0,1.1-.4,1.5-.9.6-.9.4-2.1-.5-2.7-1.6-1.1-3-2.4-4.5-3.5,0,0-.1,0-.2-.1-.3-.3-.6-.6-1-.9-.2-.2-.4-.4-.6-.5,0,0-.3-.1-.5-.2-.1,0-.2-.1-.4-.2-7.6-5.6-14.8-11.5-22-17.5-1.7-1.5-3.4-2.9-5.1-4.3-.7-.6-1.4-1.1-2-1.7-.6-.5-1.2-1.1-1.8-1.6h0c0,0-.9-.7-1.2-.8,0,0-.1,0-.2,0-2-1.5-4.2-3-6.4-3.4-.7-.1-1.4-.2-2.1-.2h0Z"/>
    </g>
  </g>
</svg>