{
    "asset" : {
        "generator" : "Khronos glTF Blender I/O v1.8.19",
        "version" : "2.0"
    },
    "extensionsUsed" : [
        "KHR_materials_transmission"
    ],
    "scene" : 0,
    "scenes" : [
        {
            "name" : "Scene",
            "nodes" : [
                0
            ]
        }
    ],
    "nodes" : [
        {
            "mesh" : 0,
            "name" : "ornament_red_z"
        }
    ],
    "materials" : [
        {
            "doubleSided" : true,
            "extensions" : {
                "KHR_materials_transmission" : {
                    "transmissionFactor" : 1
                }
            },
            "name" : "Material.005",
            "pbrMetallicRoughness" : {
                "baseColorFactor" : [
                    0.7991032600402832,
                    0.001820966717787087,
                    0,
                    1
                ],
                "metallicFactor" : 0.75
            }
        },
        {
            "doubleSided" : true,
            "name" : "gold",
            "pbrMetallicRoughness" : {
                "baseColorFactor" : [
                    0.6239604353904724,
                    0.3613065481185913,
                    0.054480381309986115,
                    1
                ],
                "metallicFactor" : 0.75,
                "roughnessFactor" : 0.25
            }
        }
    ],
    "meshes" : [
        {
            "name" : "Sphere.003",
            "primitives" : [
                {
                    "attributes" : {
                        "POSITION" : 0,
                        "NORMAL" : 1,
                        "TEXCOORD_0" : 2
                    },
                    "indices" : 3,
                    "material" : 0
                },
                {
                    "attributes" : {
                        "POSITION" : 4,
                        "NORMAL" : 5,
                        "TEXCOORD_0" : 6
                    },
                    "indices" : 7,
                    "material" : 1
                }
            ]
        }
    ],
    "accessors" : [
        {
            "bufferView" : 0,
            "componentType" : 5126,
            "count" : 8807,
            "max" : [
                0.9902942776679993,
                0.9596866369247437,
                0.9911178350448608
            ],
            "min" : [
                -0.9928398728370667,
                -1.044230341911316,
                -0.9920158982276917
            ],
            "type" : "VEC3"
        },
        {
            "bufferView" : 1,
            "componentType" : 5126,
            "count" : 8807,
            "type" : "VEC3"
        },
        {
            "bufferView" : 2,
            "componentType" : 5126,
            "count" : 8807,
            "type" : "VEC2"
        },
        {
            "bufferView" : 3,
            "componentType" : 5123,
            "count" : 47616,
            "type" : "SCALAR"
        },
        {
            "bufferView" : 4,
            "componentType" : 5126,
            "count" : 499,
            "max" : [
                0.21217626333236694,
                1.180655598640442,
                0.2130003124475479
            ],
            "min" : [
                -0.21472258865833282,
                0.9244688153266907,
                -0.21389862895011902
            ],
            "type" : "VEC3"
        },
        {
            "bufferView" : 5,
            "componentType" : 5126,
            "count" : 499,
            "type" : "VEC3"
        },
        {
            "bufferView" : 6,
            "componentType" : 5126,
            "count" : 499,
            "type" : "VEC2"
        },
        {
            "bufferView" : 7,
            "componentType" : 5123,
            "count" : 1716,
            "type" : "SCALAR"
        }
    ],
    "bufferViews" : [
        {
            "buffer" : 0,
            "byteLength" : 105684,
            "byteOffset" : 0
        },
        {
            "buffer" : 0,
            "byteLength" : 105684,
            "byteOffset" : 105684
        },
        {
            "buffer" : 0,
            "byteLength" : 70456,
            "byteOffset" : 211368
        },
        {
            "buffer" : 0,
            "byteLength" : 95232,
            "byteOffset" : 281824
        },
        {
            "buffer" : 0,
            "byteLength" : 5988,
            "byteOffset" : 377056
        },
        {
            "buffer" : 0,
            "byteLength" : 5988,
            "byteOffset" : 383044
        },
        {
            "buffer" : 0,
            "byteLength" : 3992,
            "byteOffset" : 389032
        },
        {
            "buffer" : 0,
            "byteLength" : 3432,
            "byteOffset" : 393024
        }
    ],
    "buffers" : [
        {
            "byteLength" : 396456,
            "uri" : "data:application/octet-stream;base64,"
        }
    ]
}
