{
    "asset" : {
        "generator" : "Khronos glTF Blender I/O v1.8.19",
        "version" : "2.0"
    },
    "scene" : 0,
    "scenes" : [
        {
            "name" : "Scene",
            "nodes" : [
                0
            ]
        }
    ],
    "nodes" : [
        {
            "mesh" : 0,
            "name" : "ornament_red"
        }
    ],
    "materials" : [
        {
            "doubleSided" : true,
            "name" : "gold",
            "pbrMetallicRoughness" : {
                "baseColorFactor" : [
                    0.6239604353904724,
                    0.3613065481185913,
                    0.054480381309986115,
                    1
                ],
                "metallicFactor" : 0.75,
                "roughnessFactor" : 0.25
            }
        },
        {
            "doubleSided" : true,
            "name" : "Material.003",
            "pbrMetallicRoughness" : {
                "baseColorFactor" : [
                    0.7991032600402832,
                    0.001820966717787087,
                    0,
                    1
                ],
                "metallicFactor" : 0.75,
                "roughnessFactor" : 0.25
            }
        }
    ],
    "meshes" : [
        {
            "name" : "Cylinder.002",
            "primitives" : [
                {
                    "attributes" : {
                        "POSITION" : 0,
                        "NORMAL" : 1,
                        "TEXCOORD_0" : 2
                    },
                    "indices" : 3,
                    "material" : 0
                },
                {
                    "attributes" : {
                        "POSITION" : 4,
                        "NORMAL" : 5,
                        "TEXCOORD_0" : 6
                    },
                    "indices" : 7,
                    "material" : 1
                }
            ]
        }
    ],
    "accessors" : [
        {
            "bufferView" : 0,
            "componentType" : 5126,
            "count" : 499,
            "max" : [
                0.2077420949935913,
                1.1655067205429077,
                0.2104649841785431
            ],
            "min" : [
                -0.21318793296813965,
                0.9129018783569336,
                -0.21046501398086548
            ],
            "type" : "VEC3"
        },
        {
            "bufferView" : 1,
            "componentType" : 5126,
            "count" : 499,
            "type" : "VEC3"
        },
        {
            "bufferView" : 2,
            "componentType" : 5126,
            "count" : 499,
            "type" : "VEC2"
        },
        {
            "bufferView" : 3,
            "componentType" : 5123,
            "count" : 1716,
            "type" : "SCALAR"
        },
        {
            "bufferView" : 4,
            "componentType" : 5126,
            "count" : 559,
            "max" : [
                0.9876255989074707,
                0.9500272274017334,
                0.9903483986854553
            ],
            "min" : [
                -0.9930711388587952,
                -1.0306708812713623,
                -0.9903477430343628
            ],
            "type" : "VEC3"
        },
        {
            "bufferView" : 5,
            "componentType" : 5126,
            "count" : 559,
            "type" : "VEC3"
        },
        {
            "bufferView" : 6,
            "componentType" : 5126,
            "count" : 559,
            "type" : "VEC2"
        },
        {
            "bufferView" : 7,
            "componentType" : 5123,
            "count" : 2880,
            "type" : "SCALAR"
        }
    ],
    "bufferViews" : [
        {
            "buffer" : 0,
            "byteLength" : 5988,
            "byteOffset" : 0
        },
        {
            "buffer" : 0,
            "byteLength" : 5988,
            "byteOffset" : 5988
        },
        {
            "buffer" : 0,
            "byteLength" : 3992,
            "byteOffset" : 11976
        },
        {
            "buffer" : 0,
            "byteLength" : 3432,
            "byteOffset" : 15968
        },
        {
            "buffer" : 0,
            "byteLength" : 6708,
            "byteOffset" : 19400
        },
        {
            "buffer" : 0,
            "byteLength" : 6708,
            "byteOffset" : 26108
        },
        {
            "buffer" : 0,
            "byteLength" : 4472,
            "byteOffset" : 32816
        },
        {
            "buffer" : 0,
            "byteLength" : 5760,
            "byteOffset" : 37288
        }
    ],
    "buffers" : [
        {
            "byteLength" : 43048,
            "uri" : "data:application/octet-stream;base64,"
        }
    ]
}
