{
    "asset" : {
        "generator" : "Khronos glTF Blender I/O v1.8.19",
        "version" : "2.0"
    },
    "extensionsUsed" : [
        "KHR_materials_clearcoat"
    ],
    "scene" : 0,
    "scenes" : [
        {
            "name" : "Scene",
            "nodes" : [
                0
            ]
        }
    ],
    "nodes" : [
        {
            "mesh" : 0,
            "name" : "ornament_gold"
        }
    ],
    "materials" : [
        {
            "doubleSided" : true,
            "name" : "gold",
            "pbrMetallicRoughness" : {
                "baseColorFactor" : [
                    0.6239604353904724,
                    0.3613065481185913,
                    0.054480381309986115,
                    1
                ],
                "metallicFactor" : 0.75,
                "roughnessFactor" : 0.2952961325645447
            }
        },
        {
            "doubleSided" : true,
            "extensions" : {
                "KHR_materials_clearcoat" : {
                    "clearcoatFactor" : 0.5226480960845947,
                    "clearcoatRoughnessFactor" : 0.029999999329447746
                }
            },
            "name" : "Material.002",
            "pbrMetallicRoughness" : {
                "baseColorFactor" : [
                    0.6239604353904724,
                    0.3613065481185913,
                    0.054480381309986115,
                    0.9500000476837158
                ],
                "metallicFactor" : 0.75,
                "roughnessFactor" : 0.36846691370010376
            }
        }
    ],
    "meshes" : [
        {
            "name" : "Cylinder.001",
            "primitives" : [
                {
                    "attributes" : {
                        "POSITION" : 0,
                        "NORMAL" : 1,
                        "TEXCOORD_0" : 2
                    },
                    "indices" : 3,
                    "material" : 0
                },
                {
                    "attributes" : {
                        "POSITION" : 4,
                        "NORMAL" : 5,
                        "TEXCOORD_0" : 6
                    },
                    "indices" : 7,
                    "material" : 1
                }
            ]
        }
    ],
    "accessors" : [
        {
            "bufferView" : 0,
            "componentType" : 5126,
            "count" : 499,
            "max" : [
                0.2018837332725525,
                1.1527719497680664,
                0.20223106443881989
            ],
            "min" : [
                -0.21444708108901978,
                0.9029271602630615,
                -0.2140997052192688
            ],
            "type" : "VEC3"
        },
        {
            "bufferView" : 1,
            "componentType" : 5126,
            "count" : 499,
            "type" : "VEC3"
        },
        {
            "bufferView" : 2,
            "componentType" : 5126,
            "count" : 499,
            "type" : "VEC2"
        },
        {
            "bufferView" : 3,
            "componentType" : 5123,
            "count" : 1716,
            "type" : "SCALAR"
        },
        {
            "bufferView" : 4,
            "componentType" : 5126,
            "count" : 559,
            "max" : [
                0.9732460379600525,
                0.93964684009552,
                0.9735932350158691
            ],
            "min" : [
                -0.9858089089393616,
                -1.0194092988967896,
                -0.9854611754417419
            ],
            "type" : "VEC3"
        },
        {
            "bufferView" : 5,
            "componentType" : 5126,
            "count" : 559,
            "type" : "VEC3"
        },
        {
            "bufferView" : 6,
            "componentType" : 5126,
            "count" : 559,
            "type" : "VEC2"
        },
        {
            "bufferView" : 7,
            "componentType" : 5123,
            "count" : 2880,
            "type" : "SCALAR"
        }
    ],
    "bufferViews" : [
        {
            "buffer" : 0,
            "byteLength" : 5988,
            "byteOffset" : 0
        },
        {
            "buffer" : 0,
            "byteLength" : 5988,
            "byteOffset" : 5988
        },
        {
            "buffer" : 0,
            "byteLength" : 3992,
            "byteOffset" : 11976
        },
        {
            "buffer" : 0,
            "byteLength" : 3432,
            "byteOffset" : 15968
        },
        {
            "buffer" : 0,
            "byteLength" : 6708,
            "byteOffset" : 19400
        },
        {
            "buffer" : 0,
            "byteLength" : 6708,
            "byteOffset" : 26108
        },
        {
            "buffer" : 0,
            "byteLength" : 4472,
            "byteOffset" : 32816
        },
        {
            "buffer" : 0,
            "byteLength" : 5760,
            "byteOffset" : 37288
        }
    ],
    "buffers" : [
        {
            "byteLength" : 43048,
            "uri" : "data:application/octet-stream;base64,"
        }
    ]
}
